<svg width="300" height="300" xmlns="http://www.w3.org/2000/svg" preserveAspectRatio="xMidYMid meet">
 <metadata>Created by potrace 1.14, written by Peter Selinger 2001-2017</metadata>

 <g>
  <title>background</title>
  <rect fill="none" id="canvas_background" height="402" width="582" y="-1" x="-1"/>
 </g>
 <g>
  <title>Layer 1</title>
  <g id="svg_1" fill="#000000" transform="rotate(-179.90431213378906 150,150.00000000000003) translate(0,300) scale(0.10000000149011612,-0.10000000149011612) ">
   <path id="svg_2" d="m0,1500l0,-1500l1500,0l1500,0l0,1500l0,1500l-1500,0l-1500,0l0,-1500zm990,855c53,-121 158,-363 234,-537l139,-318l142,0l142,0l234,538l235,537l168,3c145,2 167,0 164,-13c-2,-8 -109,-258 -238,-555l-235,-540l-152,0l-153,0l0,-535l0,-535l-165,0l-165,0l0,535l0,535l-152,0l-153,0l-234,538c-129,295 -236,545 -239,555c-4,16 7,17 164,15l168,-3l96,-220z"/>
  </g>
 </g>
</svg>